<svg width="75" height="75" viewBox="0 0 75 75" fill="none" xmlns="http://www.w3.org/2000/svg">
<g id="social__icon-tiktok">
<path id="Vector" d="M61.2459 37.7658C61.2459 50.1864 51.0459 60.2504 38.4574 60.2504C25.8689 60.2504 15.6689 50.1864 15.6689 37.7658C15.6689 25.3452 25.8689 15.2812 38.4574 15.2812C51.0459 15.2812 61.2459 25.3452 61.2459 37.7658Z" fill="white"/>
<path id="Vector_2" d="M42.9746 43.5606V32.4208C42.9746 32.4208 44.2496 34.5155 48.8477 34.6408C49.0958 34.6465 49.2977 34.4472 49.2977 34.2081V31.0603C49.2977 30.8269 49.1073 30.6391 48.8708 30.6277C45.2996 30.4285 43.6035 27.7246 43.4419 25.2485C43.4246 25.0208 43.2227 24.8443 42.9919 24.8443H39.3515C39.1092 24.8443 38.9131 25.0378 38.9131 25.2769V42.9857C38.9131 44.9097 37.4246 46.5832 35.4746 46.6743C33.2477 46.7768 31.4362 44.8926 31.7131 42.6669C31.9092 41.0901 33.19 39.8037 34.7823 39.5874C35.0996 39.5418 35.4054 39.5418 35.7054 39.576C35.9708 39.6045 36.2015 39.4109 36.2015 39.1491V35.9898C36.2015 35.7678 36.0285 35.5743 35.8035 35.5572C35.3477 35.5288 34.8804 35.5401 34.4015 35.5914C30.8881 35.9841 28.0554 38.7848 27.6689 42.2514C27.1554 46.8223 30.7669 50.6931 35.2958 50.6931C39.5362 50.6931 42.9746 47.3005 42.9746 43.1166" fill="black"/>
</g>
</svg>
