<svg width="74" height="75" viewBox="0 0 74 75" fill="none" xmlns="http://www.w3.org/2000/svg">
<g id="social__icon-instagram">
<path id="Vector" d="M59.5757 37.4812C59.5757 49.9018 49.5117 59.9658 37.0911 59.9658C24.6704 59.9658 14.6064 49.9018 14.6064 37.4812C14.6064 25.0606 24.6704 14.9966 37.0911 14.9966C49.5117 14.9966 59.5757 25.0606 59.5757 37.4812Z" fill="white"/>
<g id="Group">
<path id="Vector_2" d="M43.1937 25.6868H30.995C27.8529 25.6868 25.3027 28.2369 25.3027 31.3791V43.5777C25.3027 46.7198 27.8529 49.27 30.995 49.27H43.1937C46.3358 49.27 48.886 46.7198 48.886 43.5777V31.3791C48.886 28.2369 46.3358 25.6868 43.1937 25.6868ZM46.8538 43.1735C46.8538 45.4163 45.0323 47.2378 42.7895 47.2378H31.4049C29.1621 47.2378 27.3406 45.4163 27.3406 43.1735V31.7889C27.3406 29.5462 29.1621 27.7246 31.4049 27.7246H42.7895C45.0323 27.7246 46.8538 29.5462 46.8538 31.7889V43.1735Z" fill="black"/>
<path id="Vector_3" d="M37.1031 31.3791C33.7333 31.3791 31.001 34.1114 31.001 37.4812C31.001 40.8511 33.7333 43.5834 37.1031 43.5834C40.473 43.5834 43.2053 40.8511 43.2053 37.4812C43.2053 34.1114 40.473 31.3791 37.1031 31.3791ZM37.1031 41.5456C34.8604 41.5456 33.0388 39.7183 33.0388 37.4812C33.0388 35.2442 34.8661 33.4169 37.1031 33.4169C39.3402 33.4169 41.1674 35.2442 41.1674 37.4812C41.1674 39.7183 39.3402 41.5456 37.1031 41.5456Z" fill="black"/>
<path id="Vector_4" d="M43.6088 32.1931C44.2815 32.1931 44.8269 31.6477 44.8269 30.9749C44.8269 30.3022 44.2815 29.7568 43.6088 29.7568C42.936 29.7568 42.3906 30.3022 42.3906 30.9749C42.3906 31.6477 42.936 32.1931 43.6088 32.1931Z" fill="black"/>
</g>
</g>
</svg>
